HIERARCHY
ROOT Hips
{
  OFFSET 196.326 95.9168 97.7182
  CHANNELS 6 Xposition Yposition Zposition Zrotation Xrotation Yrotation
  JOINT LeftUpLeg
  {
    OFFSET 8.64259 1.95398 -2.38835
    CHANNELS 3 Zrotation Xrotation Yrotation
    JOINT LeftLeg
    {
      OFFSET 43.7702 0 0
      CHANNELS 3 Zrotation Xrotation Yrotation
      JOINT LeftFoot
      {
        OFFSET 40.6238 0 0
        CHANNELS 3 Zrotation Xrotation Yrotation
        JOINT LeftToeBase
        {
          OFFSET 12.7242 0 0
          CHANNELS 3 Zrotation Xrotation Yrotation
          End Site
          {
            OFFSET 0 0 0
          }
        }
      }
    }
  }
  JOINT RightUpLeg
  {
    OFFSET -8.2249 1.95398 -2.59336
    CHANNELS 3 Zrotation Xrotation Yrotation
    JOINT RightLeg
    {
      OFFSET 43.5653 0 0
      CHANNELS 3 Zrotation Xrotation Yrotation
      JOINT RightFoot
      {
        OFFSET 40.6238 0 0
        CHANNELS 3 Zrotation Xrotation Yrotation
        JOINT RightToeBase
        {
          OFFSET 12.7242 0 0
          CHANNELS 3 Zrotation Xrotation Yrotation
          End Site
          {
            OFFSET 0 0 0
          }
        }
      }
    }
  }
  JOINT Spine
  {
    OFFSET 0.165834 0.87714 6.61349
    CHANNELS 3 Zrotation Xrotation Yrotation
    JOINT Spine1
    {
      OFFSET 7.38963 1.71661e-005 0
      CHANNELS 3 Zrotation Xrotation Yrotation
      JOINT Spine2
      {
        OFFSET 11.9445 1.14441e-005 0
        CHANNELS 3 Zrotation Xrotation Yrotation
        JOINT Spine3
        {
          OFFSET 14.7254 4.19617e-005 0
          CHANNELS 3 Zrotation Xrotation Yrotation
          JOINT Spine4
          {
            OFFSET 10.9679 0 0
            CHANNELS 3 Zrotation Xrotation Yrotation
            JOINT RightShoulder
            {
              OFFSET 2.46616 -1.6653 3.69651
              CHANNELS 3 Zrotation Xrotation Yrotation
              JOINT RightArm
              {
                OFFSET 13.0012 0 0
                CHANNELS 3 Zrotation Xrotation Yrotation
                JOINT RightForeArm
                {
                  OFFSET 28.7848 1.52588e-005 0
                  CHANNELS 3 Zrotation Xrotation Yrotation
                  JOINT RightHand
                  {
                    OFFSET 26.5688 1.52588e-005 0
                    CHANNELS 3 Zrotation Xrotation Yrotation
                    End Site
                    {
                      OFFSET 0 0 0
                    }
                  }
                }
              }
            }
            JOINT LeftShoulder
            {
              OFFSET 2.38034 -1.29275 -3.75231
              CHANNELS 3 Zrotation Xrotation Yrotation
              JOINT LeftArm
              {
                OFFSET 16.3182 6.10351e-005 0
                CHANNELS 3 Zrotation Xrotation Yrotation
                JOINT LeftForeArm
                {
                  OFFSET 27.0901 0 0
                  CHANNELS 3 Zrotation Xrotation Yrotation
                  JOINT LeftHand
                  {
                    OFFSET 24.5451 1.52588e-005 0
                    CHANNELS 3 Zrotation Xrotation Yrotation
                    End Site
                    {
                      OFFSET 0 0 0
                    }
                  }
                }
              }
            }
            JOINT Neck
            {
              OFFSET 5.0226 -0.0266342 0
              CHANNELS 3 Zrotation Xrotation Yrotation
              JOINT Head
              {
                OFFSET 6.69363 2.86102e-005 0
                CHANNELS 3 Zrotation Xrotation Yrotation
                End Site
                {
                  OFFSET 0 0 0
                }
              }
            }
          }
        }
      }
    }
  }
}
MOTION
Frames:	17
Frame Time:	0.0416667
-12.7433 97.3249 -154.51 -32.2591 -87.0219 -33.2266 -172.235 5.73484 91.1721 -6.26071 13.4979 -0.883507 56.9828 4.66438 17.971 41.5255 11.1853 -27.3974 177.108 7.84868 87.7792 -14.0377 11.228 -0.569758 66.0822 -1.86278 -0.975717 31.618 -0.58123 19.6213 0.0385107 6.4889 -89.741 13.8954 0.202739 0.492121 2.22436 0.224199 0.482702 -20.3101 0.0454589 0.530294 -0.297412 0.0454702 0.530298 80.6206 -52.3894 -114.064 28.8042 -11.1214 6.10187 -6.33022 -13.8972 -37.0949 -3.78704 -0.537367 10.3832 -104.102 -42.7075 54.8215 -29.8355 11.2322 3.45337 2.54469 10.8519 -28.0714 9.58911 0.786899 3.9907 12.4876 2.29993 0.21222 -2.83569 2.26339 2.14374 
-12.7416 97.3087 -154.508 -32.8074 -87.0428 -33.8312 -172.317 5.68029 91.0983 -6.34219 12.8068 -0.747772 57.602 4.97062 17.1626 40.1276 10.231 -27.4807 177.145 7.90453 87.7376 -14.1864 11.1662 -0.641936 66.0779 -1.83886 -0.961975 31.8288 -0.53544 19.7284 0.0491753 6.49379 -89.7458 13.8856 0.221558 0.480184 2.21458 0.242486 0.469963 -20.3199 0.066998 0.524571 -0.307237 0.0670068 0.524575 80.6598 -52.4226 -113.995 28.6176 -11.163 5.99339 -6.20577 -13.5824 -37.0035 -3.85703 -0.543598 10.3359 -104.272 -42.7276 54.5728 -29.8739 11.249 3.49002 2.26692 10.3288 -27.905 9.60137 0.818157 4.27876 12.6369 2.25608 0.474363 -3.02191 2.14191 1.85803 
-12.7232 97.2906 -154.544 -32.318 -86.4571 -33.4166 -172.366 6.14956 90.9763 -6.28363 12.7968 -0.817072 57.3693 4.88732 17.5927 40.4058 10.3938 -27.8248 177.204 8.42321 87.7039 -14.0551 11.2678 -0.635532 66.1869 -1.9193 -1.00803 31.5842 -0.612917 20.2173 0.0884869 6.44642 -89.7587 13.9803 0.293291 0.444276 2.30927 0.312575 0.430937 -20.2254 0.146218 0.511887 -0.212717 0.146219 0.511888 80.8618 -52.0938 -113.824 28.8729 -10.8992 6.5193 -5.57122 -15.13 -36.663 -4.85377 -0.655984 9.89318 -104.511 -42.9239 54.3074 -29.7281 11.48 3.3369 1.88836 9.9236 -27.6187 9.96027 0.835369 4.18361 12.6924 2.24118 0.663421 -3.17859 2.07726 1.86115 
-12.6936 97.2905 -154.576 -29.5236 -86.7976 -30.2817 -172.217 6.08566 91.3223 -6.32947 13.3915 -0.859986 57.4913 5.06563 17.6842 39.8906 10.0786 -27.3573 177.316 8.06377 88.0272 -13.8132 11.7125 -0.609485 65.9959 -1.88364 -0.989554 31.5184 -0.621039 20.0231 0.0513237 6.46551 -89.7944 13.9424 0.202138 0.38508 2.27146 0.218897 0.375808 -20.2633 0.0770644 0.428036 -0.250619 0.0770609 0.428024 80.8038 -52.118 -113.9 28.9277 -10.8235 6.62394 -5.53057 -15.4531 -36.6553 -6.17032 -0.694655 7.2368 -104.299 -42.8475 54.5905 -29.8808 11.5435 3.23726 1.91834 10.2181 -27.426 9.81113 0.800934 3.96787 12.8918 2.26613 0.455882 -3.68799 2.14695 1.98607 
-12.6715 97.2917 -154.618 -29.7748 -86.96 -30.5022 -172.231 5.96035 91.3286 -6.40151 12.9556 -0.773373 57.726 5.0764 17.053 39.7771 10.0292 -26.943 177.287 7.85355 88.0282 -13.7001 11.6833 -0.597977 66.143 -1.96116 -1.03436 31.2393 -0.688306 20.0212 0.0540933 6.48146 -89.8104 13.9105 0.199799 0.353297 2.23955 0.215147 0.344156 -20.2953 0.0843696 0.397005 -0.282605 0.084376 0.397008 80.7167 -52.0318 -114.059 28.9461 -10.6416 6.82171 -5.68791 -15.6214 -36.9325 -5.72409 -0.64439 6.87914 -104.475 -42.9456 54.3726 -29.7939 11.6881 3.3687 1.79267 9.89202 -27.6951 10.0642 0.881057 4.52946 12.7973 2.26782 0.587183 -3.71452 2.11416 1.91572 
-12.6615 97.2705 -154.622 -29.0239 -86.9015 -29.8395 -172.178 6.04491 91.2872 -6.34703 13.3072 -0.911873 57.5308 5.01568 17.4204 40.0855 10.2265 -27.1391 177.357 8.15133 87.9699 -14.1083 11.7186 -0.701276 65.9122 -1.7964 -0.940094 31.9358 -0.519469 19.9907 0.0755106 6.46624 -89.8033 13.9409 0.245784 0.361451 2.26991 0.261457 0.350272 -20.2649 0.125786 0.418602 -0.252264 0.125794 0.418606 80.9424 -51.991 -113.746 29.0927 -10.5482 6.87789 -5.34629 -15.1289 -36.9704 -5.75875 -0.632482 6.54877 -104.648 -42.8691 54.0739 -29.8715 11.6171 3.41924 1.85851 10.0121 -27.6413 10.1391 0.898424 4.6331 12.5765 2.15987 0.65317 -3.50229 1.99357 1.7567 
-12.6382 97.263 -154.639 -30.8183 -86.8372 -31.5231 -172.198 6.05247 91.3414 -6.35743 13.1972 -0.84762 57.527 5.05113 17.5245 40.1064 10.2411 -27.1348 177.428 8.05718 88.0759 -13.8716 11.7322 -0.7227 65.9335 -1.8568 -0.975026 31.873 -0.535674 20.0167 0.0884357 6.4673 -89.8182 13.9388 0.264121 0.329088 2.26781 0.278353 0.317132 -20.2671 0.153004 0.393252 -0.254442 0.152997 0.393237 81.0446 -51.894 -113.633 29.2721 -10.4896 6.80179 -5.44615 -15.0825 -37.0102 -5.85078 -0.627962 6.22253 -104.464 -42.9527 54.3933 -29.8255 11.6381 3.26765 1.75735 9.87763 -27.5013 9.99973 0.905285 4.79802 12.5681 2.21065 0.633099 -3.4744 2.05103 1.84163 
-12.6553 97.2639 -154.658 -33.9322 -87.0716 -34.9717 -172.216 5.71119 91.0926 -6.34207 13.0039 -0.906421 57.7218 5.12392 17.2413 39.5069 9.83036 -27.1574 177.188 7.87244 87.7374 -14.0423 11.6404 -0.691101 66.393 -1.93959 -1.01958 31.2293 -0.706717 20.3965 0.0786443 6.50414 -89.7907 13.865 0.258002 0.385236 2.19402 0.274701 0.373505 -20.3407 0.130293 0.444965 -0.328096 0.130288 0.444961 81.1764 -51.8011 -113.474 29.2217 -10.6575 6.63088 -5.54257 -15.321 -36.9708 -5.71015 -0.622734 6.36981 -104.356 -43.0197 54.5882 -29.8781 11.69 3.24147 1.68056 9.62131 -27.5895 10.097 0.905379 4.72732 12.7473 2.31934 0.706647 -3.80553 2.1282 1.71828 
-12.5934 97.2521 -154.654 -30.649 -86.8672 -31.4455 -172.174 6.01979 91.2572 -6.33561 13.3886 -0.943778 57.4687 5.12616 17.8615 39.9008 10.0585 -27.754 177.369 8.20743 87.9595 -14.1983 11.573 -0.724635 66.0523 -1.82298 -0.95392 31.8578 -0.527188 19.6965 0.0920723 6.46611 -89.8128 13.9412 0.273945 0.33849 2.2702 0.288581 0.326099 -20.2647 0.159549 0.405169 -0.252058 0.159557 0.405169 81.2174 -51.9263 -113.369 29.1905 -10.6699 6.57768 -5.54389 -15.3391 -36.7513 -5.68491 -0.613281 6.16709 -104.466 -42.9318 54.3794 -29.8628 11.7113 3.43561 1.63953 9.44379 -27.7501 10.5694 0.92705 4.58357 12.6694 2.20272 0.590565 -3.85673 2.04466 1.7667 
-12.5402 97.2696 -154.717 -23.8425 -87.423 -25.036 -172.44 5.74138 90.8109 -6.44529 13.0138 -0.790138 57.8243 5.14212 16.9196 39.3334 9.72836 -26.896 177.01 7.93535 87.4658 -14.3287 11.9484 -0.614837 66.3275 -1.84876 -0.970984 31.6126 -0.61714 20.4935 0.0279599 6.49773 -89.7674 13.8779 0.168909 0.443681 2.20686 0.188275 0.435808 -20.3277 0.0277588 0.473931 -0.315051 0.0277582 0.473925 80.9871 -52.0999 -113.64 29.0306 -10.5807 6.67704 -5.21015 -14.9605 -36.7184 -5.92551 -0.617493 5.81511 -104.434 -42.872 54.3988 -29.9093 11.6699 3.34476 1.73047 9.72285 -27.6259 10.212 0.90248 4.61694 12.2657 2.16604 0.457967 -3.58291 2.05096 1.83868 
-12.5281 97.2719 -154.737 -25.259 -87.5021 -26.5232 -172.415 5.65333 90.7737 -6.41745 13.2525 -0.856506 57.6858 5.1628 17.3181 39.622 9.87208 -27.7264 176.991 7.90285 87.4044 -14.4075 11.9017 -0.654737 66.309 -1.84598 -0.968518 31.6368 -0.609691 20.4498 0.0305806 6.51222 -89.7628 13.8489 0.176317 0.452052 2.17792 0.196041 0.443848 -20.3566 0.0323056 0.484148 -0.343971 0.0323078 0.484142 81.067 -52.1057 -113.522 29.0362 -10.5288 6.62123 -5.47396 -15.1172 -36.7436 -5.6518 -0.595797 5.79821 -104.386 -42.8889 54.48 -29.8416 11.7819 3.28582 1.67478 9.62864 -27.6989 9.9324 0.875103 4.56974 12.3348 2.14955 0.434129 -3.58007 2.04197 1.89961 
-12.4917 97.2475 -154.736 -23.2988 -87.3246 -24.3306 -172.371 5.90046 90.9743 -6.43778 13.4233 -0.862352 57.6648 5.13802 17.3011 39.928 10.0995 -27.4225 177.214 8.0709 87.6583 -14.3614 11.8741 -0.737874 66.0773 -1.79969 -0.942983 31.9769 -0.49885 19.6974 0.0407159 6.48775 -89.7838 13.8979 0.186235 0.408567 2.22689 0.204044 0.399966 -20.3078 0.0548401 0.445652 -0.295123 0.0548401 0.44565 81.1199 -52.1711 -113.422 29.0161 -10.5457 6.57281 -5.57249 -15.2947 -36.6968 -5.74474 -0.602072 5.73921 -104.349 -42.8045 54.4944 -29.8316 12.0141 3.21261 1.49887 9.58232 -27.5977 10.4773 0.913397 4.52855 12.2599 2.02409 0.223423 -3.58368 1.97625 2.06532 
-12.4596 97.2672 -154.759 -24.123 -87.4273 -25.2019 -172.45 5.79129 90.8674 -6.4523 13.3176 -0.79209 57.5615 5.11375 17.4632 39.881 10.0163 -28.181 177.138 7.89689 87.576 -14.2046 11.9683 -0.715207 66.2345 -1.86895 -0.982585 31.5276 -0.630046 20.2961 0.0280096 6.49601 -89.7687 13.8813 0.168406 0.441282 2.21029 0.187674 0.433431 -20.3243 0.0279936 0.471492 -0.311628 0.028 0.471487 80.871 -52.3596 -113.713 28.8223 -10.529 6.55702 -5.46312 -15.1831 -36.6309 -5.68665 -0.595933 5.71673 -104.148 -42.7687 54.7821 -29.9009 11.9575 3.16842 1.5995 9.75839 -27.5868 10.312 0.873932 4.29119 12.1425 1.97481 -0.0924022 -3.60862 2.0114 2.28605 
-12.4468 97.2587 -154.768 -22.5598 -87.5356 -23.8239 -172.429 5.70829 90.7292 -6.45992 13.2106 -0.875168 57.7705 5.14215 16.9948 39.3584 9.72915 -27.1541 177.048 8.00515 87.3799 -14.5673 11.7864 -0.734594 66.2018 -1.80612 -0.946005 32.0258 -0.489109 19.755 0.0227364 6.50577 -89.7411 13.8617 0.17136 0.496224 2.19067 0.193031 0.488198 -20.3437 0.0143078 0.524785 -0.331088 0.0143005 0.524784 80.9084 -52.5338 -113.595 28.6585 -10.6419 6.49099 -5.7584 -15.4449 -36.8009 -5.48651 -0.584614 5.79989 -104.144 -42.6994 54.753 -29.8012 12.2313 3.07176 1.4806 9.88399 -27.5817 10.8316 0.937711 4.49739 12.1831 1.91613 -0.0670802 -3.64195 1.94165 2.08112 
-12.4224 97.2614 -154.758 -22.2231 -87.4548 -23.381 -172.446 5.79514 90.7916 -6.47311 13.2828 -0.836118 57.8457 5.27097 17.1372 39.0078 9.49425 -27.0828 177.11 7.95413 87.4924 -14.3233 12.0544 -0.736138 66.2769 -1.86142 -0.977612 31.7961 -0.562117 20.2216 0.0318232 6.49483 -89.7561 13.8836 0.182095 0.464642 2.21262 0.202374 0.456172 -20.3219 0.0340309 0.49789 -0.309239 0.0340338 0.497885 80.995 -52.5546 -113.462 28.5869 -10.6914 6.43069 -5.63812 -15.4279 -36.6102 -5.67771 -0.592995 5.61417 -104.227 -42.6701 54.6141 -29.7656 12.2888 3.14239 1.5888 10.1268 -27.7884 11.0969 0.991024 4.76785 12.1279 1.92076 -0.0924608 -3.73821 1.95633 2.29424 
-12.3833 97.2474 -154.767 -20.5917 -87.4754 -21.701 -172.518 5.82703 90.7729 -6.49333 13.2008 -0.751591 57.7308 5.09845 16.9671 39.4161 9.77795 -27.0048 177.079 7.95697 87.4896 -14.3396 12.0357 -0.687311 66.3414 -1.87405 -0.985555 31.5438 -0.619598 20.1362 0.0246722 6.49025 -89.766 13.8928 0.163135 0.447345 2.22184 0.182666 0.439726 -20.3127 0.0211397 0.475694 -0.300059 0.0211422 0.475681 81.0196 -52.3991 -113.483 28.775 -10.6025 6.50297 -5.84283 -15.4358 -36.6427 -5.81172 -0.607552 5.707 -104.325 -42.7468 54.502 -29.6871 12.4055 3.21053 1.51085 9.96852 -27.9307 11.2465 1.03702 5.05197 11.9503 1.9036 0.0167356 -3.65216 1.91325 2.22547 
-12.3692 97.2428 -154.771 -19.9572 -87.792 -21.381 -172.552 5.52842 90.5279 -6.47922 13.5142 -0.845773 57.5921 5.15415 17.4297 39.9157 10.0521 -27.9959 176.865 7.89958 87.1426 -14.7943 11.8838 -0.685936 66.521 -1.82788 -0.957731 31.8497 -0.539351 19.969 0.00729834 6.52092 -89.7384 13.8315 0.142007 0.505535 2.16042 0.164121 0.498794 -20.3739 -0.0164938 0.524841 -0.361305 -0.0164899 0.524844 81.0788 -52.303 -113.432 28.6869 -10.5456 5.74681 -5.31838 -15.6858 -35.18 -5.92668 -0.5999 5.2657 -104.191 -42.7477 54.7061 -29.7594 12.4588 3.09003 1.36626 9.6441 -27.9448 11.268 1.0638 5.25912 12.094 1.93934 0.0696731 -3.85054 1.93236 2.28225 
